<svg width="162" height="162" viewBox="0 0 162 162" fill="none" xmlns="http://www.w3.org/2000/svg">
<rect width="162" height="162" rx="81" fill="#18C07A"/>
<rect x="0.5" y="0.5" width="161" height="161" rx="80.5" stroke="#007BFF" stroke-opacity="0.2"/>
<path d="M70.9183 101.048L54.9466 85.0483C54.3405 84.4398 54 83.615 54 82.7551C54 81.8951 54.3405 81.0704 54.9466 80.4618L56.887 78.5143C57.4942 77.9068 58.317 77.5655 59.1749 77.5655C60.0328 77.5655 60.8557 77.9068 61.4628 78.5143L73.0729 90.1442L100.416 61.0196C101.004 60.3939 101.816 60.0277 102.673 60.0015C103.531 59.9753 104.364 60.2912 104.989 60.8798L106.982 62.7648C107.607 63.3547 107.972 64.1691 107.998 65.0292C108.025 65.8892 107.709 66.7245 107.121 67.3514L75.5713 100.975C75.2742 101.292 74.9165 101.547 74.5195 101.723C74.1225 101.899 73.6942 101.993 73.2601 102C72.826 102.006 72.395 101.926 71.9927 101.762C71.5904 101.598 71.225 101.355 70.9183 101.048Z" fill="white"/>
</svg>
