<svg width="53" height="63" viewBox="0 0 53 63" fill="none" xmlns="http://www.w3.org/2000/svg">
<path d="M36.2494 62.306C29.4352 62.306 22.6195 62.306 15.8054 62.306C15.8037 57.2481 15.8086 52.1886 15.7972 47.1308C15.794 45.7965 15.807 44.4655 16.0521 43.1491C16.3816 41.3799 16.8199 39.643 17.7369 38.0653C18.0859 38.6318 18.43 39.2032 18.8683 39.708C20.4899 41.573 22.5318 42.6833 24.9812 42.9414C27.5134 43.2076 29.8264 42.5534 31.8684 41.0049C33.3228 41.5389 34.6668 42.2937 35.9929 43.0842C36.0367 43.1637 36.0806 43.2433 36.126 43.3244C36.1682 43.9283 36.2445 44.5305 36.2461 45.1343C36.2526 50.8576 36.2494 56.581 36.2494 62.306Z" fill="#F8F5F8"/>
<path d="M17.7366 38.0654C16.8212 39.6431 16.3813 41.3783 16.0534 43.1492C15.8083 44.464 15.7969 45.7966 15.7986 47.1308C15.8099 52.1887 15.805 57.2482 15.8067 62.306C13.6965 62.306 11.588 62.306 9.47787 62.306C9.4795 60.4669 9.48112 58.6279 9.48112 56.7904C9.48112 56.5502 9.50384 56.3067 9.30744 56.1087C9.01851 55.8149 8.6955 55.6315 8.27834 55.7905C7.82709 55.9626 7.6453 56.3132 7.64692 56.7888C7.65341 58.6279 7.65017 60.4669 7.65179 62.3044C5.90687 62.3044 4.16357 62.3044 2.41864 62.3044C1.47395 61.9732 0.688327 61.4668 0.279284 60.4897C0.126705 60.1277 0.0211977 59.7479 0.0163281 59.3762C-0.0274979 56.2207 -0.0664543 53.062 1.08438 50.0412C3.27081 44.3065 7.29469 40.5553 13.1836 38.8007C14.2078 38.4955 15.2759 38.403 16.2969 38.093C16.7757 38.015 17.2545 37.9388 17.7334 37.8608C17.735 37.9323 17.7366 37.9988 17.7366 38.0654Z" fill="#9BC3F8"/>
<path d="M36.1262 43.3228C36.0824 43.2433 36.0385 43.1637 35.9931 43.0826C35.8795 41.7759 35.4802 40.5439 35.0435 39.3184C34.8763 38.8493 34.5598 38.4354 34.5273 37.9176C34.9672 37.976 35.4071 38.0361 35.847 38.0945C36.8647 38.3331 37.9019 38.5133 38.8986 38.8201C45.8556 40.9643 50.1343 45.6164 51.6828 52.7178C52.1795 54.9984 52.1632 57.3423 51.9603 59.665C51.8451 60.9863 51.0676 61.8369 49.7804 62.2021C49.7268 62.2167 49.6846 62.2686 49.6359 62.3043C47.891 62.3043 46.1477 62.3043 44.4028 62.3043C44.4028 60.488 44.3963 58.6716 44.406 56.8553C44.4093 56.2434 44.1658 55.8522 43.549 55.7304C43.5458 54.5439 43.2227 53.4141 42.8575 52.3071C41.843 49.2231 40.0835 46.613 37.6682 44.4525C37.1991 44.0305 36.7446 43.5565 36.1262 43.3228Z" fill="#7FB2F8"/>
<path d="M27.6105 0C28.1478 0.243478 28.7403 0.220753 29.3035 0.344115C35.5414 1.69947 40.359 6.78654 41.3378 13.0845C41.4871 14.0454 41.5504 15.0128 41.479 15.9867C40.6885 14.9203 39.6172 14.5145 38.3122 14.6087C37.7506 14.6492 37.1841 14.6168 36.6192 14.6184C36.577 14.3603 36.5364 14.1022 36.491 13.8458C36.116 11.7226 34.1666 9.84299 32.2334 9.73748C32.1506 9.69853 32.0694 9.66119 31.9866 9.62224C31.0403 7.03001 29.3782 4.97181 27.2323 3.28208C25.6465 2.03385 23.8837 1.12487 21.9375 0.577853C22.6014 0.288926 23.3188 0.251593 24.0168 0.128231C24.1288 0.108753 24.2603 0.139594 24.3236 0C25.4209 0 26.5149 0 27.6105 0Z" fill="#E39543"/>
<path d="M36.1289 43.3228C36.749 43.5565 37.2018 44.0305 37.6758 44.4525C40.0911 46.6129 41.849 49.223 42.8651 52.3071C43.2303 53.4141 43.5534 54.5438 43.5566 55.7304C42.7905 55.8635 42.5827 56.0972 42.5827 56.8423C42.5811 58.6635 42.5843 60.4831 42.5859 62.3043C40.4758 62.3043 38.3673 62.3043 36.2571 62.3043C36.2571 56.5793 36.2604 50.856 36.2506 45.131C36.2474 44.5288 36.1695 43.9266 36.1289 43.3228Z" fill="#9BC3F8"/>
<path d="M7.65332 62.306C7.65332 60.4669 7.65656 58.6278 7.64845 56.7904C7.64683 56.3148 7.82862 55.9642 8.27987 55.7921C8.69703 55.6331 9.02004 55.8165 9.30897 56.1103C9.50375 56.3083 9.48265 56.5502 9.48265 56.792C9.48265 58.6311 9.48102 60.4701 9.4794 62.3076C8.86908 62.306 8.26201 62.306 7.65332 62.306Z" fill="#61A1F8"/>
<path d="M42.5814 62.3061C42.5797 60.4849 42.5781 58.6653 42.5781 56.8441C42.5781 56.099 42.7875 55.8653 43.552 55.7322C44.1705 55.8539 44.4139 56.2451 44.4091 56.857C44.3977 58.6734 44.4058 60.4897 44.4058 62.3061C43.7971 62.3061 43.1901 62.3061 42.5814 62.3061Z" fill="#61A1F8"/>
<path d="M21.9408 0.577881C23.887 1.12489 25.6498 2.03388 27.2357 3.28211C29.3815 4.97184 31.0437 7.03004 31.99 9.62227C30.3181 9.57844 28.8816 10.08 27.6609 11.2844C26.4923 12.4385 25.0395 12.9725 23.3692 12.9238C21.9749 12.8832 20.579 12.9108 19.1831 12.9173C18.5516 12.9206 17.9446 13.0472 17.3683 13.3231C16.3003 13.8361 15.7971 14.7743 15.4449 15.8326C14.5018 15.8309 13.5587 15.7352 12.6416 16.1183C11.5395 16.5776 11.0249 17.5109 10.5591 18.5043C10.5704 16.1394 10.3789 13.7565 11.0704 11.4435C12.7 5.99445 16.2289 2.38773 21.6406 0.629823C21.7379 0.598982 21.8402 0.594113 21.9408 0.577881Z" fill="#E6A561"/>
<path d="M17.7351 37.8656C17.2563 37.9435 16.7774 38.0198 16.2986 38.0977C14.0083 38.0004 11.9517 37.3251 10.4016 35.5493C8.28006 33.1211 7.73305 30.3438 8.96505 27.3652C9.92273 25.0506 10.5119 22.6937 10.5623 20.1973C10.723 20.293 10.7148 20.4765 10.77 20.6225C11.231 21.8448 12.1286 22.5931 13.3769 22.8366C14.0424 22.9664 14.7501 22.8771 15.4383 22.8869C15.4773 22.9762 15.5406 23.0638 15.5519 23.1563C15.7581 24.9418 16.4041 26.5488 17.4332 28.0226C18.1993 29.1199 19.209 29.9494 20.2251 30.7837C20.2153 32.1407 20.2072 33.496 20.1975 34.853C20.1877 36.4031 19.2755 37.5199 17.7351 37.8656Z" fill="#E6A561"/>
<path d="M15.4439 22.8837C14.7556 22.8739 14.0479 22.9632 13.3824 22.8333C12.1326 22.5899 11.2349 21.8432 10.7756 20.6193C10.7204 20.4748 10.7301 20.2898 10.5678 20.194C10.3958 19.6308 10.4039 19.0659 10.5646 18.5011C11.0304 17.5077 11.545 16.5743 12.6471 16.115C13.5642 15.7319 14.5057 15.8277 15.4504 15.8293C15.4471 18.1829 15.4455 20.5333 15.4439 22.8837Z" fill="#FECABD"/>
<path d="M35.8511 38.0945C35.4113 38.0361 34.9714 37.9761 34.5315 37.9176C34.4617 37.9063 34.3919 37.8949 34.3221 37.8835C33.517 37.6417 32.7639 37.3235 32.3516 36.5152C34.3497 34.8417 35.408 32.7202 35.4113 30.0955C35.8349 30.0858 36.2586 30.0776 36.6822 30.0679C38.3298 30.0338 39.7062 28.7304 39.7679 27.091C39.8069 26.0635 39.7646 25.0312 39.7598 24.0021C40.6298 23.7521 41.2369 23.1905 41.6443 22.3967C41.891 24.1725 42.4932 25.8346 43.1652 27.4903C45.079 32.2024 41.9008 37.4144 36.8169 37.9809C36.4939 38.0199 36.1725 38.0572 35.8511 38.0945Z" fill="#E39543"/>
<path d="M41.6419 22.3983C41.2345 23.192 40.6274 23.752 39.7574 24.0036C39.1666 24.1692 38.5595 24.0621 37.9622 24.1254C37.4363 24.1172 36.9087 24.1107 36.3828 24.1026C36.5938 22.8658 36.6117 21.6175 36.6052 20.3677C36.5971 18.4507 36.6149 16.5353 36.6214 14.6184C37.1863 14.6184 37.7528 14.6492 38.3144 14.6086C39.6194 14.5145 40.6891 14.9203 41.4812 15.9867C41.8059 16.6376 41.9 17.3275 41.8805 18.0498C41.8562 19.0221 41.8676 19.996 41.8773 20.9699C41.8822 21.4617 41.827 21.9389 41.6419 22.3983Z" fill="#375E7C"/>
<path d="M32.3479 36.5152C32.7602 37.3235 33.5134 37.6417 34.3185 37.8835C34.2454 38.2926 33.9727 38.5961 33.7649 38.9337C33.265 39.7453 32.5492 40.3605 31.8674 41.0049C29.8255 42.5534 27.5124 43.2076 24.9803 42.9414C22.5325 42.6833 20.4889 41.5714 18.8674 39.708C18.4275 39.2032 18.0834 38.6334 17.736 38.0653C17.736 37.9988 17.7344 37.9322 17.7344 37.8657C19.2748 37.5199 20.187 36.4048 20.1967 34.8514C20.2065 33.4944 20.2146 32.1391 20.2243 30.7821C20.5766 30.8454 20.8168 31.1165 21.1268 31.2626C23.1509 32.2219 25.2595 32.7153 27.4995 32.3566C28.7315 32.1586 29.9456 31.8696 31.0153 31.17C31.2945 31.1717 31.572 31.1717 31.8512 31.1733C31.8545 32.4475 31.861 33.7201 31.8577 34.9943C31.8577 35.5575 31.9989 36.0688 32.3479 36.5152Z" fill="#FECABD"/>
<path d="M31.8672 41.0049C32.5489 40.3605 33.2631 39.7453 33.7647 38.9337C33.9725 38.5961 34.2452 38.2926 34.3182 37.8835C34.388 37.8949 34.4578 37.9063 34.5276 37.9176C34.5601 38.4354 34.8766 38.8493 35.0438 39.3184C35.4804 40.5456 35.8781 41.7776 35.9933 43.0826C34.6656 42.2937 33.3232 41.539 31.8672 41.0049Z" fill="#DCD9EB"/>
<path d="M31.0152 31.17C29.9455 31.868 28.7314 32.1586 27.4994 32.3566C25.2578 32.7153 23.1493 32.2219 21.1268 31.2626C20.8184 31.1165 20.5765 30.8454 20.2243 30.7821C19.2098 29.9478 18.1985 29.1183 17.4324 28.0211C16.4033 26.5456 15.7589 24.9386 15.5511 23.1548C15.5398 23.0622 15.4765 22.9746 15.4375 22.8853C15.4391 20.5349 15.4407 18.1846 15.4424 15.8326C15.7946 14.7742 16.2978 13.8377 17.3658 13.3231C17.9421 13.0456 18.5491 12.9206 19.1806 12.9173C20.5765 12.9108 21.9724 12.8816 23.3668 12.9238C25.037 12.9725 26.4881 12.4385 27.6585 11.2844C28.8791 10.08 30.314 9.57843 31.9875 9.62226C32.0703 9.66122 32.1514 9.69855 32.2342 9.73751C32.1985 10.0313 32.3154 10.2943 32.4063 10.5588C32.9549 12.1528 33.1805 13.7938 33.213 15.4755C33.2601 17.993 33.028 20.5187 33.4516 23.0249C33.7178 24.5978 34.1431 26.1154 34.9449 27.5098C34.7355 27.737 34.755 27.9756 34.9141 28.2191C34.5813 28.5502 34.2291 28.1006 33.8915 28.2467C33.4857 27.6461 32.9565 27.2241 32.2066 27.2078C31.1954 27.1884 30.1793 27.1624 29.1713 27.2192C28.0545 27.2841 27.2608 28.1753 27.2949 29.2173C27.3306 30.2984 28.1876 31.1197 29.319 31.1473C29.8822 31.1619 30.4487 31.1635 31.0152 31.17Z" fill="#FEDCCD"/>
<path d="M34.9443 27.5081C34.1425 26.1138 33.7172 24.5961 33.451 23.0232C33.0274 20.517 33.2611 17.9914 33.2124 15.4738C33.1799 13.7938 32.9543 12.1511 32.4057 10.5572C32.3148 10.2926 32.1963 10.0296 32.2336 9.73584C34.1668 9.83972 36.1163 11.721 36.4912 13.8441C36.5367 14.1006 36.5773 14.3587 36.6195 14.6168C36.613 16.5337 36.5935 18.4491 36.6032 20.3661C36.6081 21.6176 36.5919 22.8642 36.3809 24.101C36.3338 24.2536 36.2867 24.4062 36.2396 24.5588C35.9215 25.5911 35.5952 26.6202 34.9443 27.5081Z" fill="#FDC9BC"/>
<path d="M33.8906 28.2451C34.2282 28.099 34.5805 28.547 34.9132 28.2175C35.4359 28.2272 35.9602 28.2467 36.4829 28.2418C37.4194 28.2337 37.9356 27.7224 37.9486 26.7826C37.9616 25.8963 37.9567 25.0101 37.9599 24.1238C38.5573 24.0605 39.166 24.1676 39.7552 24.0021C39.7601 25.0312 39.8023 26.0635 39.7633 27.091C39.7016 28.732 38.3235 30.0338 36.6776 30.0679C36.254 30.076 35.8303 30.0858 35.4067 30.0939C34.9116 30.0809 34.4165 30.0695 33.9215 30.0566C34.1276 29.4511 34.1438 28.8457 33.8906 28.2451Z" fill="#F7F4F6"/>
<path d="M33.925 30.0581C34.4201 30.0711 34.9152 30.0825 35.4102 30.0954C35.407 32.7201 34.3487 34.8416 32.3505 36.5151C31.9999 36.0688 31.8603 35.5575 31.862 34.9942C31.8652 33.72 31.8587 32.4474 31.8555 31.1732C32.758 31.196 33.4381 30.8064 33.925 30.0581Z" fill="#E6A561"/>
<path d="M37.9619 24.1238C37.9586 25.0101 37.9635 25.8963 37.9505 26.7826C37.9359 27.7224 37.4213 28.2337 36.4848 28.2418C35.9621 28.2467 35.4378 28.2256 34.9151 28.2175C34.7577 27.974 34.7366 27.7354 34.946 27.5081C35.5969 26.6219 35.9231 25.5912 36.2413 24.5588C36.2884 24.4062 36.3354 24.2537 36.3825 24.1011C36.9084 24.1092 37.4359 24.1173 37.9619 24.1238Z" fill="#E39543"/>
<path d="M33.9231 30.0582C33.4362 30.8065 32.756 31.196 31.8536 31.1733C31.5744 31.1717 31.2968 31.1717 31.0176 31.1701C30.4511 31.1619 29.8846 31.1603 29.3181 31.1473C28.1868 31.1181 27.3297 30.2984 27.294 29.2174C27.2599 28.1753 28.0537 27.2841 29.1704 27.2192C30.18 27.1608 31.1945 27.1868 32.2058 27.2079C32.9573 27.2225 33.4865 27.6461 33.8906 28.2467C34.1455 28.8457 34.1293 29.4511 33.9231 30.0582Z" fill="#485A5A"/>
</svg>
