<svg width="732" height="285" viewBox="0 0 732 285" fill="none" xmlns="http://www.w3.org/2000/svg">
<g opacity="0.24">
<mask id="path-1-inside-1_1_103" fill="white">
<path fill-rule="evenodd" clip-rule="evenodd" d="M375.849 214.524C384.243 240.604 409.285 259.228 438.566 258.663C461.719 258.217 481.861 245.767 492.859 227.576C509.322 258.55 542.73 279.412 580.701 278.68C634.3 277.646 676.889 234.154 675.874 181.489C675.746 174.892 674.929 168.535 673.537 162.418C677.729 163.589 682.141 164.186 686.772 164.097C712.24 163.606 732.456 142.961 731.973 117.937C731.491 92.9127 710.494 73.0631 685.026 73.5543L684.792 73.445C679.351 73.5499 674.159 74.5604 669.446 76.3581C669.433 75.6893 669.475 75.0194 669.519 74.3361C669.564 73.6249 669.61 72.8991 669.596 72.145C669.008 41.6608 643.411 17.4621 612.386 18.0604C595.484 18.3864 580.346 26.0746 570.385 37.987C555.001 14.9569 528.191 -0.115245 498.092 0.465197C461.626 1.16843 430.924 24.5184 419.73 56.5953C413.083 54.2201 405.879 52.9935 398.354 53.1386C388.023 53.3379 378.365 56.1484 370.021 60.9166C362.305 38.8999 340.839 23.297 315.851 23.7789C298.95 24.1048 283.811 31.7931 273.85 43.7055C258.466 20.6753 231.656 5.6032 201.557 6.18364C165.091 6.88687 134.389 30.2368 123.195 62.3137C116.548 59.9385 109.344 58.712 101.82 58.8571C69.4053 59.4822 43.6246 85.8095 44.2388 117.659C44.2805 119.82 44.4379 121.979 44.7089 124.022L44.3617 124.029C19.4722 124.508 -0.405026 144.691 0.0687821 169.261C0.54259 193.83 21.0674 213.233 46.0726 212.751C57.8807 212.523 68.4455 207.882 76.2951 200.562L76.328 202.268C77.0036 237.302 106.375 265.069 142.031 264.382C165.184 263.935 185.326 251.485 196.324 233.294C212.787 264.269 246.195 285.131 284.166 284.399C328.131 283.551 364.688 254.136 375.849 214.524Z"/>
</mask>
<path fill-rule="evenodd" clip-rule="evenodd" d="M375.849 214.524C384.243 240.604 409.285 259.228 438.566 258.663C461.719 258.217 481.861 245.767 492.859 227.576C509.322 258.55 542.73 279.412 580.701 278.68C634.3 277.646 676.889 234.154 675.874 181.489C675.746 174.892 674.929 168.535 673.537 162.418C677.729 163.589 682.141 164.186 686.772 164.097C712.24 163.606 732.456 142.961 731.973 117.937C731.491 92.9127 710.494 73.0631 685.026 73.5543L684.792 73.445C679.351 73.5499 674.159 74.5604 669.446 76.3581C669.433 75.6893 669.475 75.0194 669.519 74.3361C669.564 73.6249 669.61 72.8991 669.596 72.145C669.008 41.6608 643.411 17.4621 612.386 18.0604C595.484 18.3864 580.346 26.0746 570.385 37.987C555.001 14.9569 528.191 -0.115245 498.092 0.465197C461.626 1.16843 430.924 24.5184 419.73 56.5953C413.083 54.2201 405.879 52.9935 398.354 53.1386C388.023 53.3379 378.365 56.1484 370.021 60.9166C362.305 38.8999 340.839 23.297 315.851 23.7789C298.95 24.1048 283.811 31.7931 273.85 43.7055C258.466 20.6753 231.656 5.6032 201.557 6.18364C165.091 6.88687 134.389 30.2368 123.195 62.3137C116.548 59.9385 109.344 58.712 101.82 58.8571C69.4053 59.4822 43.6246 85.8095 44.2388 117.659C44.2805 119.82 44.4379 121.979 44.7089 124.022L44.3617 124.029C19.4722 124.508 -0.405026 144.691 0.0687821 169.261C0.54259 193.83 21.0674 213.233 46.0726 212.751C57.8807 212.523 68.4455 207.882 76.2951 200.562L76.328 202.268C77.0036 237.302 106.375 265.069 142.031 264.382C165.184 263.935 185.326 251.485 196.324 233.294C212.787 264.269 246.195 285.131 284.166 284.399C328.131 283.551 364.688 254.136 375.849 214.524Z" fill="white"/>
<path d="M375.849 214.524L376.801 214.218L375.786 211.063L374.887 214.253L375.849 214.524ZM492.859 227.576L493.742 227.107L492.915 225.55L492.004 227.058L492.859 227.576ZM673.537 162.418L673.806 161.455L672.19 161.003L672.562 162.64L673.537 162.418ZM685.026 73.5543L684.602 74.4602L684.813 74.5586L685.045 74.5541L685.026 73.5543ZM684.792 73.445L685.215 72.5391L685.005 72.4407L684.773 72.4452L684.792 73.445ZM669.446 76.3581L668.446 76.3774L668.473 77.7992L669.802 77.2924L669.446 76.3581ZM669.519 74.3361L668.521 74.2725L668.521 74.2725L669.519 74.3361ZM570.385 37.987L569.553 38.5425L570.295 39.6531L571.152 38.6285L570.385 37.987ZM419.73 56.5953L419.393 57.5369L420.342 57.876L420.674 56.9247L419.73 56.5953ZM370.021 60.9166L369.077 61.2473L369.474 62.3807L370.517 61.7848L370.021 60.9166ZM273.85 43.7055L273.018 44.2609L273.76 45.3716L274.617 44.347L273.85 43.7055ZM123.195 62.3137L122.858 63.2554L123.807 63.5944L124.139 62.6432L123.195 62.3137ZM44.7089 124.022L44.7282 125.022L45.8475 125L45.7003 123.89L44.7089 124.022ZM76.2951 200.562L77.2949 200.543L77.2517 198.302L75.6131 199.831L76.2951 200.562ZM196.324 233.294L197.207 232.825L196.38 231.269L195.469 232.777L196.324 233.294ZM374.897 214.831C383.426 241.329 408.862 260.236 438.585 259.663L438.546 257.663C409.709 258.22 385.06 239.878 376.801 214.218L374.897 214.831ZM438.585 259.663C462.09 259.21 482.544 246.57 493.715 228.093L492.004 227.058C481.178 244.964 461.347 257.224 438.546 257.663L438.585 259.663ZM491.976 228.045C508.613 259.347 542.366 280.42 580.72 279.68L580.682 277.68C543.094 278.405 510.032 257.754 493.742 227.107L491.976 228.045ZM580.72 279.68C634.855 278.636 677.9 234.704 676.874 181.47L674.874 181.509C675.879 233.605 633.745 276.657 580.682 277.68L580.72 279.68ZM676.874 181.47C676.745 174.802 675.919 168.378 674.512 162.196L672.562 162.64C673.939 168.693 674.748 174.982 674.874 181.509L676.874 181.47ZM673.268 163.381C677.551 164.577 682.061 165.188 686.791 165.097L686.752 163.097C682.222 163.184 677.906 162.6 673.806 161.455L673.268 163.381ZM686.791 165.097C712.795 164.595 733.466 143.511 732.973 117.918L730.973 117.956C731.445 142.412 711.685 162.616 686.752 163.097L686.791 165.097ZM732.973 117.918C732.479 92.3248 711.01 72.053 685.006 72.5545L685.045 74.5541C709.978 74.0733 730.502 93.5007 730.973 117.956L732.973 117.918ZM685.449 72.6484L685.215 72.5391L684.368 74.3509L684.602 74.4602L685.449 72.6484ZM684.773 72.4452C679.221 72.5523 673.914 73.5835 669.089 75.4238L669.802 77.2924C674.404 75.5373 679.481 74.5476 684.811 74.4448L684.773 72.4452ZM670.445 76.3388C670.433 75.7185 670.473 75.0902 670.517 74.3997L668.521 74.2725C668.478 74.9485 668.432 75.6601 668.446 76.3774L670.445 76.3388ZM670.517 74.3997C670.562 73.6941 670.611 72.9278 670.596 72.1257L668.596 72.1643C668.61 72.8705 668.567 73.5557 668.521 74.2725L670.517 74.3997ZM670.596 72.1257C669.997 41.0728 643.927 16.452 612.367 17.0606L612.405 19.0602C642.895 18.4723 668.019 42.2488 668.596 72.1643L670.596 72.1257ZM612.367 17.0606C595.171 17.3922 579.761 25.2149 569.617 37.3455L571.152 38.6285C580.931 26.9344 595.798 19.3805 612.405 19.0602L612.367 17.0606ZM571.216 37.4316C555.649 14.1263 528.522 -1.12182 498.072 -0.534617L498.111 1.46501C527.859 0.891334 554.353 15.7874 569.553 38.5425L571.216 37.4316ZM498.072 -0.534617C461.184 0.176756 430.116 23.798 418.786 56.2658L420.674 56.9247C431.731 25.2387 462.067 2.16009 498.111 1.46501L498.072 -0.534617ZM420.066 55.6536C413.306 53.2378 405.982 51.9914 398.335 52.1388L398.374 54.1384C405.777 53.9957 412.86 55.2023 419.393 57.5369L420.066 55.6536ZM398.335 52.1388C387.832 52.3413 378.011 55.1988 369.525 60.0484L370.517 61.7848C378.719 57.0979 388.213 54.3344 398.374 54.1384L398.335 52.1388ZM370.965 60.5859C363.107 38.1642 341.254 22.2888 315.832 22.7791L315.871 24.7787C340.423 24.3052 361.503 39.6355 369.077 61.2473L370.965 60.5859ZM315.832 22.7791C298.636 23.1107 283.227 30.9333 273.083 43.064L274.617 44.347C284.396 32.6528 299.263 25.099 315.871 24.7787L315.832 22.7791ZM274.681 43.15C259.114 19.8448 231.987 4.59662 201.537 5.18383L201.576 7.18346C231.324 6.60978 257.819 21.5058 273.018 44.2609L274.681 43.15ZM201.537 5.18383C164.649 5.8952 133.581 29.5165 122.251 61.9842L124.139 62.6432C135.196 30.9572 165.532 7.87854 201.576 7.18346L201.537 5.18383ZM123.531 61.372C116.771 58.9563 109.447 57.7098 101.8 57.8573L101.839 59.8569C109.242 59.7141 116.325 60.9208 122.858 63.2554L123.531 61.372ZM101.8 57.8573C68.8505 58.4927 42.6138 85.2601 43.239 117.678L45.2386 117.639C44.6354 86.3589 69.9601 60.4716 101.839 59.8569L101.8 57.8573ZM43.239 117.678C43.2813 119.874 43.4413 122.07 43.7176 124.153L45.7003 123.89C45.4345 121.887 45.2796 119.766 45.2386 117.639L43.239 117.678ZM44.6897 123.022L44.3424 123.029L44.3809 125.028L44.7282 125.022L44.6897 123.022ZM44.3424 123.029C18.919 123.519 -1.41584 144.14 -0.931032 169.28L1.0686 169.241C0.605787 145.242 20.0253 125.498 44.3809 125.028L44.3424 123.029ZM-0.931032 169.28C-0.446257 194.418 20.5511 214.244 46.0919 213.751L46.0533 211.751C21.5836 212.223 1.53144 193.242 1.0686 169.241L-0.931032 169.28ZM46.0919 213.751C58.1555 213.518 68.954 208.775 76.9771 201.293L75.6131 199.831C67.9369 206.989 57.6058 211.529 46.0533 211.751L46.0919 213.751ZM75.2953 200.581L75.3282 202.287L77.3278 202.249L77.2949 200.543L75.2953 200.581ZM75.3282 202.287C76.0147 237.89 105.859 266.079 142.05 265.381L142.012 263.382C106.892 264.059 77.9924 236.714 77.3278 202.249L75.3282 202.287ZM142.05 265.381C165.556 264.928 186.009 252.288 197.18 233.812L195.469 232.777C184.643 250.682 164.812 262.942 142.012 263.382L142.05 265.381ZM195.441 233.764C212.078 265.065 245.831 286.138 284.185 285.398L284.147 283.399C246.559 284.124 213.497 263.473 197.207 232.825L195.441 233.764ZM284.185 285.398C328.593 284.542 365.532 254.83 376.812 214.795L374.887 214.253C363.845 253.442 327.669 282.559 284.147 283.399L284.185 285.398Z" fill="#295086" mask="url(#path-1-inside-1_1_103)"/>
</g>
</svg>
