<svg width="61" height="61" viewBox="0 0 61 61" fill="none" xmlns="http://www.w3.org/2000/svg">
<rect width="61" height="61" rx="30.5" fill="#95CCD5" fill-opacity="0.25"/>
<path d="M23.5002 39.1666C22.9043 39.1666 22.3944 38.9547 21.9705 38.5307C21.5466 38.1068 21.3342 37.5965 21.3335 37V34.8333C21.3335 34.5264 21.4375 34.2692 21.6455 34.062C21.8535 33.8547 22.1106 33.7507 22.4168 33.75C22.7231 33.7492 22.9805 33.8532 23.1892 34.062C23.398 34.2707 23.5016 34.5278 23.5002 34.8333V37H36.5002V34.8333C36.5002 34.5264 36.6042 34.2692 36.8122 34.062C37.0202 33.8547 37.2773 33.7507 37.5835 33.75C37.8897 33.7492 38.1472 33.8532 38.3559 34.062C38.5646 34.2707 38.6683 34.5278 38.6668 34.8333V37C38.6668 37.5958 38.4549 38.106 38.0309 38.5307C37.607 38.9554 37.0967 39.1674 36.5002 39.1666H23.5002ZM28.9168 26.0041L26.8856 28.0354C26.6689 28.2521 26.4118 28.3561 26.1142 28.3474C25.8167 28.3387 25.5592 28.2257 25.3418 28.0083C25.1432 27.7916 25.0392 27.5389 25.0298 27.25C25.0204 26.9611 25.1244 26.7083 25.3418 26.4916L29.2418 22.5916C29.3502 22.4833 29.4675 22.4067 29.5939 22.362C29.7203 22.3172 29.8557 22.2944 30.0002 22.2937C30.1446 22.293 30.28 22.3157 30.4064 22.362C30.5328 22.4082 30.6502 22.4847 30.7585 22.5916L34.6585 26.4916C34.8752 26.7083 34.9792 26.9611 34.9705 27.25C34.9618 27.5389 34.8578 27.7916 34.6585 28.0083C34.4418 28.225 34.1847 28.338 33.8872 28.3474C33.5896 28.3568 33.3321 28.2528 33.1147 28.0354L31.0835 26.0041V33.75C31.0835 34.0569 30.9795 34.3144 30.7715 34.5224C30.5635 34.7304 30.3064 34.834 30.0002 34.8333C29.6939 34.8326 29.4368 34.7286 29.2288 34.5213C29.0208 34.314 28.9168 34.0569 28.9168 33.75V26.0041Z" fill="#95CCD5"/>
</svg>
