<svg width="63" height="58" viewBox="0 0 63 58" fill="none" xmlns="http://www.w3.org/2000/svg">
<g clip-path="url(#clip0_17820_311)">
<path d="M56.0488 34.8529C55.2585 33.8067 54.5105 32.7586 53.3324 32.1515C52.8453 31.8992 52.4171 31.9179 51.93 32.1757C50.331 33.0183 49.4397 34.4344 48.7927 36.0578C48.5924 36.5585 48.4141 37.0648 48.3608 37.6197C48.3038 38.2119 47.8811 38.0904 47.5062 37.9671C45.7179 37.3843 43.9278 37.2983 42.1487 37.9858C41.7351 38.1465 41.3418 38.3744 40.9595 38.6023C40.7904 38.7032 40.6636 38.8564 40.6544 39.1067C40.614 40.2426 40.6452 41.3598 41.1838 42.3985C41.2462 42.5199 41.294 42.6488 41.3418 42.7778C41.4668 43.1103 41.4705 43.3008 41.0018 43.299C36.8922 43.2822 32.7845 43.2878 28.6749 43.2934C28.1364 43.2934 27.7431 42.9403 27.3498 42.6806C25.8114 41.668 24.3154 40.5864 23.0583 39.2076C21.4446 37.4366 20.1378 35.4638 19.1692 33.2537C18.3367 31.3519 17.8551 29.351 17.5206 27.311C17.4471 26.8626 17.5537 26.3918 17.3809 25.9416C17.3056 25.7454 17.414 25.5829 17.6677 25.596C17.8514 25.6053 18.0352 25.596 18.219 25.596C31.373 25.596 44.5251 25.596 57.679 25.596C58.6623 25.596 58.6825 25.6053 58.5723 26.5992C58.2616 29.3641 57.543 32.0113 56.2877 34.4942C56.2271 34.6156 56.1389 34.7202 56.0506 34.851L56.0488 34.8529Z" fill="#89DDC6"/>
<path d="M6.46765 33.1622C6.46765 29.2895 6.45478 25.4186 6.48603 21.5458C6.4897 21.1329 6.2324 20.7612 6.407 20.3296C6.73966 19.5113 7.19179 19.2479 8.08869 19.5599C9.0444 19.8906 9.95233 20.3595 10.908 20.6883C13.3378 21.5215 15.7124 21.3253 18.0189 20.197C18.7725 19.8289 19.5279 19.4926 20.399 19.4796C21.0607 19.4684 21.3456 19.8383 21.3731 20.3931C21.4264 21.4393 21.3915 22.4911 21.4007 23.541C21.4044 23.9913 21.0864 23.9184 20.8236 23.9203C19.6308 23.9259 18.4343 23.9632 17.2433 23.9128C15.7528 23.8474 15.6113 24.4135 15.7271 25.6185C15.8925 27.3503 16.0616 29.0858 16.5468 30.7691C17.3959 33.7115 18.6677 36.4353 20.6086 38.8023C21.1544 39.4674 21.4871 40.1231 21.4246 41.0423C21.3327 42.3893 21.3878 43.7474 21.4099 45.1C21.4172 45.5222 21.2904 45.6623 20.8659 45.6605C16.2527 45.6474 11.6395 45.6418 7.02637 45.6642C6.47684 45.6661 6.4603 45.4139 6.46213 44.9898C6.47316 41.0479 6.46765 37.106 6.46765 33.1641V33.1622Z" fill="#2A7ABD"/>
<path d="M51.0554 23.9201C49.5171 23.9201 47.9806 23.922 46.4422 23.9164C46.2676 23.9164 46.0379 23.9949 45.9331 23.8081C45.8118 23.5951 46.0544 23.4979 46.1537 23.3541C48.0394 20.5873 49.9251 17.8205 51.8089 15.0537C53.1047 13.15 54.382 11.2351 55.6943 9.34635C56.4625 8.23851 57.8869 7.85366 59.2414 8.27027C60.7173 8.72424 61.4727 9.77603 61.6105 11.265C61.662 11.818 61.6105 12.2682 61.3514 12.7969C60.1733 15.1845 59.0797 17.615 57.9623 20.0324C57.4421 21.1571 56.9294 22.2836 56.4386 23.4213C56.2806 23.7894 56.0802 23.9388 55.6667 23.9332C54.1302 23.9071 52.5919 23.922 51.0535 23.922L51.0554 23.9201Z" fill="#2A7ABD"/>
<path d="M33.3895 50.7572C31.1197 50.7572 28.848 50.7534 26.5782 50.7609C26.2069 50.7609 26.0434 50.7908 26.1573 50.2527C26.5543 48.3995 27.2674 46.7163 28.394 45.2068C28.5631 44.9807 28.7561 44.9676 28.9877 44.9676C33.4832 44.9676 37.9769 44.9844 42.4725 44.9527C43.1286 44.9471 43.3271 45.4982 43.7535 45.7616C43.9612 45.8905 43.6469 46.0605 43.5348 46.167C42.5331 47.1198 41.6344 48.1454 41.1216 49.4662C41.0812 49.5709 40.9856 49.6699 40.9838 49.7726C40.9654 50.7702 40.3405 50.7852 39.5814 50.7702C37.5174 50.731 35.4535 50.7572 33.3895 50.7572Z" fill="#89DDC6"/>
<path d="M25.1185 47.7789C24.9256 48.6196 24.5727 49.4154 24.5194 50.2953C24.4955 50.6764 24.2235 50.7698 23.843 50.768C20.9722 50.7493 18.1032 50.7568 15.2324 50.7568C11.3746 50.7568 7.51684 50.7437 3.65906 50.7717C3.07644 50.7754 2.66842 50.611 2.29165 50.172C1.6153 49.3855 0.788239 48.7429 0.1707 47.8984C0.0732907 47.7639 -0.0516874 47.6481 0.025505 47.4687C0.110049 47.2707 0.299354 47.3342 0.446387 47.3324C1.20361 47.323 1.96267 47.3286 2.71989 47.3286C9.99986 47.3286 17.278 47.3268 24.558 47.3398C24.7804 47.3398 25.1902 47.0951 25.2196 47.6275C25.1479 47.6518 25.0836 47.6799 25.1222 47.777L25.1185 47.7789Z" fill="#89DDC6"/>
<path d="M14.7751 17.5328C14.7696 17.9999 14.7457 18.4669 14.7641 18.9321C14.7807 19.3637 14.5969 19.4926 14.1889 19.4963C13.1045 19.5094 13.0806 19.5243 13.1137 18.4277C13.1321 17.7888 13.1137 17.4021 12.2958 17.2096C10.2612 16.7295 8.74495 14.6614 8.97469 12.8157C9.17135 11.2408 9.66575 9.74434 10.4671 8.36935C11.0313 7.40162 11.5441 6.40961 12.2168 5.49793C12.5292 5.07385 12.8711 4.58625 13.0236 4.00898C13.0935 3.74369 13.2478 3.34764 13.7275 3.37379C14.1503 3.39621 14.5142 3.38874 14.7457 3.85579C15.6849 5.75387 16.999 7.44085 17.8095 9.41554C17.7875 9.50708 17.8426 9.54257 17.9143 9.56686C18.2782 10.6243 18.6568 11.6667 18.7579 12.8044C18.9619 15.1173 17.5816 16.3185 15.9091 17.0751C15.5857 17.2209 15.231 17.3012 14.8909 17.4114C14.7917 17.3965 14.7604 17.445 14.777 17.5384L14.7751 17.5328ZM13.1357 12.4831C13.1688 12.4364 13.2001 12.3897 13.2331 12.343C13.2772 12.2982 13.3214 12.2515 13.3655 12.2066C13.4114 12.1749 13.4574 12.1431 13.5052 12.1095C14.4517 12.0161 14.7494 12.2776 14.7586 13.2136C14.766 13.9964 14.7696 14.7791 14.7751 15.5638C14.7825 15.5974 14.7899 15.6329 14.7954 15.6665C14.8321 15.6366 14.867 15.6086 14.9038 15.5787C16.2069 15.2686 17.192 14.4896 17.0836 12.9053C17.0137 11.8853 16.8612 10.8821 16.2859 9.97973C15.968 9.48279 15.8669 8.84013 15.5397 8.35253C15.2015 7.84812 14.8579 7.3792 14.6483 6.79072C14.5252 6.44137 14.2697 6.03223 13.8654 5.93696C13.4114 5.83047 13.5217 6.3629 13.3912 6.57214C12.3105 8.3133 11.2978 10.0937 10.7575 12.1039C10.3531 13.6078 10.9541 14.8781 12.373 15.4666C12.9556 15.7095 13.0971 15.6179 13.1063 14.9958C13.1174 14.157 13.1284 13.3182 13.1376 12.4794L13.1357 12.4831Z" fill="#2B7BBD"/>
<path d="M36.5451 12.0646C36.1995 12.9744 35.9735 13.8525 36.0286 14.8931C36.0746 15.7618 36.1058 16.5856 36.3778 17.4151C36.5193 17.8448 36.7307 18.2259 37.0248 18.5248C37.4126 18.919 37.3317 19.4272 37.4622 19.8793C37.5045 20.0287 37.3997 20.2772 37.2141 20.3127C36.9274 20.3687 36.6112 20.6789 36.3337 20.3444C35.7382 19.6289 35.0656 18.9508 34.9608 17.9438C35.0049 17.8467 34.9406 17.8261 34.8689 17.8074C34.4774 17.3535 34.3929 16.7463 34.3524 16.2176C34.2679 15.1042 34.1172 13.8973 34.4407 12.8754C34.7696 11.8404 35.2181 10.7513 35.9937 9.88629C37.0358 8.72427 37.5265 7.27829 37.5908 5.75944C37.6552 4.22752 37.2821 2.74418 36.2823 1.5093C35.9459 1.09269 35.786 0.644324 36.1609 0.214639C36.4954 -0.168341 37.2214 -0.0207536 37.5908 0.470582C38.53 1.72414 39.0226 3.1365 39.1604 4.71699C39.2468 5.69032 39.2523 6.69915 39.0593 7.59027C38.8461 8.57295 38.3646 9.56869 37.6864 10.3982C37.2986 10.8727 36.9292 11.3678 36.659 11.9282C36.5763 11.932 36.5285 11.9693 36.5432 12.0609L36.5451 12.0646Z" fill="#2B7BBD"/>
<path d="M51.7629 44.4498C50.5848 43.2187 49.9673 41.8717 49.8919 40.2539C49.8055 38.3988 50.0371 36.6352 51.127 35.0771C51.2575 34.8903 51.3953 34.7035 51.5534 34.5409C52.7168 33.3509 52.6911 33.4368 53.8618 34.6866C54.7753 35.6618 55.141 36.936 55.4093 38.2344C55.5325 38.8359 55.2109 39.1554 54.7955 39.473C53.1855 40.706 52.0699 42.264 51.7648 44.448L51.7629 44.4498Z" fill="#2B7BBD"/>
<path d="M49.8772 53.2697C49.8478 52.8773 49.9966 52.6606 50.3256 52.4215C51.9117 51.2614 53.1045 49.7948 53.4666 47.7753C53.5401 47.3718 53.6633 47.51 53.8434 47.6707C54.3856 48.1527 54.7679 48.7468 55.0013 49.4324C55.8486 51.9152 55.549 54.2878 54.2459 56.5278C53.9371 57.0584 53.4887 57.5011 52.9869 57.871C52.5256 58.2129 52.2885 57.8038 52.0055 57.5646C50.6859 56.4437 50.1896 54.9025 49.8772 53.2715V53.2697Z" fill="#2B7BBD"/>
<path d="M50.9196 45.9127C48.7325 46.772 46.9001 45.9369 45.1909 44.7245C43.8933 43.8035 42.8438 42.6209 42.4579 40.9937C42.0995 39.4842 42.2208 39.5103 43.5569 39.2955C44.9556 39.0713 46.4149 39.1124 47.7713 39.7756C48.1021 39.9363 48.2363 40.0988 48.2583 40.4781C48.3907 42.6396 49.2343 44.4555 50.9178 45.9145L50.9196 45.9127Z" fill="#2B7BBD"/>
<path d="M51.8271 47.422C51.1563 50.1309 49.3 51.4181 47.0393 52.2457C45.7914 52.7034 44.5122 52.8342 43.1963 52.4176C42.3453 52.1486 42.1266 51.9412 42.3453 51.0744C42.7588 49.4378 43.6778 48.1282 44.9956 47.1119C45.1647 46.9812 45.3613 46.8747 45.626 47.0054C47.587 47.9732 49.6088 48.2646 51.8289 47.422H51.8271Z" fill="#2B7BBD"/>
<path d="M62.9818 40.3196C62.8973 41.5078 62.3679 42.5147 61.5942 43.3741C61.1678 43.8468 60.7487 44.3418 60.1882 44.6856C59.9419 44.8369 59.7618 44.8836 59.5063 44.7435C58.2841 44.0784 56.9663 43.7888 55.5952 43.8766C55.0769 43.9103 54.5256 43.9588 54.0367 44.2522C53.9393 44.3101 53.7224 44.4819 53.557 44.2858C53.4099 44.1102 53.5331 43.9663 53.5864 43.7851C54.3932 41.0669 57.9772 38.9913 60.2727 39.2267C60.9877 39.2996 61.7045 39.2267 62.4157 39.477C62.8752 39.6377 63.0627 39.8413 62.9818 40.3177V40.3196Z" fill="#2B7BBD"/>
<path d="M60.344 52.683C59.3056 52.5878 58.3039 52.3598 57.3684 51.8722C57.1277 51.7471 57.0652 51.5864 57.0468 51.3267C56.8998 49.3203 56.3282 47.5044 54.7218 46.1742C54.6189 46.0883 54.4958 45.9874 54.5472 45.8268C54.5877 45.6979 54.72 45.7035 54.8321 45.681C57.8298 45.0683 61.2814 47.2821 62.4301 49.5949C63.4942 51.7359 63.0531 52.5261 60.6896 52.6812C60.5756 52.6886 60.4598 52.6812 60.3459 52.6812L60.344 52.683Z" fill="#2A7ABD"/>
<path d="M26.1665 16.2498C26.1886 15.0971 26.5764 13.8473 27.4806 12.7674C28.3077 11.7773 28.6992 9.37106 27.6074 7.841C27.5413 7.74759 27.4549 7.66539 27.4071 7.56264C27.2141 7.15351 27.1424 6.69767 27.5652 6.44173C27.9658 6.19886 28.4602 6.18578 28.7837 6.64162C29.4564 7.59067 29.9232 8.62004 29.9085 9.82503C29.903 10.3519 30.1015 10.9609 29.9636 11.3794C29.7504 12.0239 29.5097 12.717 29.0722 13.2812C28.9179 13.4792 28.769 13.6829 28.622 13.8884C27.567 15.353 27.4108 16.8887 28.2691 18.5028C28.4198 18.7849 28.5962 19.0539 28.7377 19.3416C28.9454 19.7676 28.7929 20.0964 28.4308 20.3542C28.0614 20.6157 27.6883 20.4962 27.4457 20.2215C26.8962 19.5957 26.6627 18.8073 26.4036 18.0171C26.2345 17.4996 26.1996 17.0082 26.1665 16.2498Z" fill="#2B7BBD"/>
<path d="M17.914 9.56148C17.8423 9.53719 17.7853 9.5017 17.8092 9.41016C17.8442 9.4606 17.8791 9.51104 17.914 9.56148Z" fill="#FEFEFF"/>
<path d="M36.5451 12.0648C36.5304 11.9714 36.5782 11.9359 36.6609 11.9321C36.6223 11.977 36.5837 12.0199 36.5451 12.0648Z" fill="#FCFDFE"/>
<path d="M14.7751 17.533C14.7585 17.4396 14.7916 17.391 14.889 17.406C14.8504 17.449 14.8118 17.4901 14.7751 17.533Z" fill="#DAE8F4"/>
<path d="M34.8691 17.8096C34.939 17.8264 35.0051 17.8469 34.961 17.9459C34.9298 17.9011 34.9004 17.8563 34.8691 17.8096Z" fill="#F9FBFD"/>
<path d="M41.5918 43.2299C41.5753 43.2448 41.5569 43.271 41.5403 43.271C41.5238 43.271 41.5073 43.243 41.4907 43.2262C41.5073 43.2112 41.5256 43.1851 41.5422 43.1851C41.5587 43.1851 41.5753 43.2131 41.5918 43.2299Z" fill="#3B6787"/>
<path d="M25.1188 47.7793C25.082 47.6822 25.1445 47.6523 25.2162 47.6299C25.1831 47.6803 25.15 47.7308 25.1188 47.7793Z" fill="#FCFDFE"/>
<path d="M13.3652 12.2049C13.3855 12.1339 13.413 12.0741 13.5049 12.1078C13.459 12.1395 13.413 12.1713 13.3652 12.2049Z" fill="#2B7BBD"/>
<path d="M13.1354 12.4834C13.0986 12.3881 13.1611 12.3619 13.2328 12.3433C13.1997 12.39 13.1685 12.4367 13.1354 12.4834Z" fill="#2B7BBD"/>
<path d="M14.7749 15.564C14.819 15.564 14.8613 15.5696 14.9036 15.5789C14.8668 15.6088 14.8319 15.6368 14.7951 15.6667C14.7878 15.6331 14.7804 15.5976 14.7749 15.564Z" fill="#DAE8F4"/>
</g>
<defs>
<clipPath id="clip0_17820_311">
<rect width="63" height="58" fill="white"/>
</clipPath>
</defs>
</svg>
